<svg width="105" height="105" viewBox="0 0 105 105" fill="none" xmlns="http://www.w3.org/2000/svg">
<path id="Vector" d="M105 52.5C105 57.9528 104.169 63.2149 102.622 68.1582C102.454 68.71 102.274 69.2553 102.08 69.7972C101.469 71.5645 100.76 73.2857 99.9646 74.9609C99.2978 76.3735 98.5684 77.7496 97.7771 79.0865C96.2005 81.7702 94.3938 84.2994 92.3769 86.648C90.2682 89.1082 87.9358 91.3716 85.4132 93.4081C76.4098 100.658 64.9623 105 52.5 105C23.5056 105 0 81.4944 0 52.5C0 23.5056 23.5051 0 52.4997 0C81.4944 0 105 23.5056 105 52.5Z" fill="url(#paint0_linear_401_1806)"/>
<defs>
<linearGradient id="paint0_linear_401_1806" x1="54.8224" y1="54.8255" x2="123.415" y2="123.418" gradientUnits="userSpaceOnUse">
<stop stop-color="white"/>
<stop offset="1" stop-color="#C3C3C3"/>
</linearGradient>
</defs>
</svg>
