<svg width="84" height="103" viewBox="0 0 84 103" fill="none" xmlns="http://www.w3.org/2000/svg">
<path id="Vector" d="M42.0181 0C18.851 0 0.0695801 18.7989 0.0695801 41.9873C0.0695801 60.0646 25.5604 88.8175 36.7985 100.618C39.6408 103.603 44.3957 103.603 47.238 100.618C58.4789 88.8175 83.9699 60.0646 83.9699 41.9873C83.9694 18.7989 65.188 0 42.0181 0ZM42.0181 57.9593C33.2053 57.9593 26.0611 50.8083 26.0611 41.9875C26.0611 33.1667 33.2055 26.0157 42.0181 26.0157C50.8307 26.0157 57.9752 33.1667 57.9752 41.9875C57.9752 50.8083 50.8307 57.9593 42.0181 57.9593Z" fill="url(#paint0_linear_401_1799)"/>
<defs>
<linearGradient id="paint0_linear_401_1799" x1="27.4781" y1="29.6747" x2="69.4908" y2="71.6484" gradientUnits="userSpaceOnUse">
<stop stop-color="#FFC851"/>
<stop offset="1" stop-color="#FFAE00"/>
</linearGradient>
</defs>
</svg>
