<svg width="54" height="61" viewBox="0 0 54 61" fill="none" xmlns="http://www.w3.org/2000/svg">
<path id="Vector" d="M0.734375 23.2926V12.3016C0.734375 6.2119 4.03928 3.16703 10.6488 3.16703C13.6576 3.16703 16.0748 3.89804 17.8999 5.35765C19.7239 6.81858 20.6371 9.13377 20.6371 12.3013V23.2924C20.6371 26.4613 19.7242 28.7762 17.8999 30.2361C16.0745 31.697 13.6576 32.4267 10.6488 32.4267C4.03928 32.427 0.734375 29.3821 0.734375 23.2926ZM6.00703 23.1686C6.00703 26.0243 7.55403 27.4515 10.6486 27.4515C13.7917 27.4515 15.3639 26.0243 15.3639 23.1686V12.4257C15.3639 9.57125 13.7917 8.14299 10.6486 8.14299C7.55377 8.14299 6.00703 9.57125 6.00703 12.4257C6.0073 12.4257 6.0073 23.1686 6.00703 23.1686ZM10.7986 57.2879C10.7986 56.8921 10.8972 56.521 11.0943 56.1741L38.2587 1.60755C38.6534 0.716376 39.3937 0.27066 40.4798 0.27066C41.278 0.27066 42.0008 0.543454 42.6497 1.08772C43.2984 1.63305 43.6233 2.30136 43.6233 3.09266C43.6233 3.48977 43.5489 3.88528 43.4015 4.2808L16.2349 58.6248C15.79 59.5648 14.9514 60.036 13.7179 60.036C12.8689 60.036 12.1703 59.7505 11.621 59.182C11.0725 58.612 10.7986 57.9809 10.7986 57.2879ZM33.4851 48.4728V37.3981C33.4851 31.2622 36.79 28.1942 43.3996 28.1942C46.4083 28.1942 48.8255 28.9311 50.6506 30.4024C52.4747 31.8737 53.3879 34.2061 53.3879 37.3981V48.4728C53.3879 51.6662 52.4747 53.9984 50.6506 55.4699C48.8253 56.9412 46.4083 57.6767 43.3996 57.6767C36.7898 57.6767 33.4851 54.6088 33.4851 48.4728ZM38.7578 48.3695C38.7578 51.2574 40.3048 52.7013 43.3993 52.7013C46.5425 52.7013 48.1147 51.2579 48.1147 48.3695V37.5012C48.1147 34.6144 46.5425 33.1694 43.3993 33.1694C40.3045 33.1694 38.7578 34.6141 38.7578 37.5012V48.3695Z" fill="url(#paint0_linear_401_1790)"/>
<defs>
<linearGradient id="paint0_linear_401_1790" x1="27.06" y1="14.2145" x2="27.06" y2="80.9358" gradientUnits="userSpaceOnUse">
<stop stop-color="white"/>
<stop offset="1" stop-color="#E2EDF2"/>
</linearGradient>
</defs>
</svg>
