<svg width="53" height="47" viewBox="0 0 53 47" fill="none" xmlns="http://www.w3.org/2000/svg">
<path id="Vector" d="M53 28.3934C52.3352 29.8182 51.6078 31.2062 50.8188 32.5547C49.2468 35.2615 47.4453 37.8126 45.4342 40.1815C43.3316 42.6629 41.0059 44.9459 38.4906 47L1.663 9.79374C-0.554333 7.55398 -0.554333 3.92278 1.663 1.68302C1.7611 1.58378 1.85947 1.49068 1.96416 1.40132C4.08629 -0.467106 7.25697 -0.467106 9.37936 1.40132C9.48432 1.49068 9.58242 1.58352 9.68053 1.68302C9.77863 1.78226 9.87699 1.88843 9.96217 1.9946H9.96534C10.0307 1.9978 10.0964 2.00127 10.1684 2.00447C10.2929 2.01434 10.4305 2.02101 10.5777 2.03088C11.3506 2.0805 12.4087 2.16347 13.6368 2.27604C14.0036 2.30912 14.3868 2.34567 14.7832 2.38542C15.068 2.41503 15.3597 2.4417 15.6577 2.47478C15.9101 2.50119 16.1656 2.52787 16.4272 2.55428C16.6171 2.57402 16.8104 2.59749 17.0037 2.61723C17.3117 2.65031 17.6195 2.68686 17.9306 2.72341C19.4112 2.89574 20.9439 3.09101 22.4078 3.31002C22.6077 3.33963 22.8073 3.36978 23.004 3.40259C23.0333 3.40579 23.0663 3.40926 23.0955 3.41593C23.3247 3.45247 23.551 3.48876 23.7736 3.5221C23.9961 3.56185 24.2158 3.5984 24.4321 3.63468C24.576 3.66109 24.7203 3.68456 24.8643 3.71097C25.0837 3.75072 25.3031 3.79047 25.5194 3.83368C25.6275 3.85342 25.7356 3.87343 25.8403 3.89344C26.0629 3.93986 26.2757 3.9828 26.4856 4.02602C26.551 4.03936 26.6135 4.05243 26.6758 4.06577C26.761 4.08551 26.8461 4.10578 26.9282 4.12205C26.9674 4.12872 27.0067 4.13859 27.046 4.14846C27.1673 4.17807 27.2884 4.20475 27.4028 4.23116C27.4846 4.2509 27.5632 4.27117 27.6386 4.28745C27.9432 4.36694 28.2283 4.44297 28.4967 4.51927C28.559 4.53901 28.6212 4.55901 28.6803 4.57555C28.7296 4.58889 28.7752 4.60517 28.8211 4.61877C28.8899 4.64198 28.9553 4.66519 29.021 4.6852C29.0439 4.69187 29.0669 4.69827 29.0898 4.7084C29.2209 4.75482 29.3422 4.79777 29.4567 4.84419C29.4664 4.84739 29.4762 4.85406 29.4894 4.85726C29.5516 4.88367 29.6138 4.91035 29.6729 4.93356C29.8137 4.99651 29.9382 5.05627 30.0498 5.11922C30.0991 5.14884 30.1413 5.17551 30.184 5.20192C30.3214 5.29129 30.4264 5.38092 30.4952 5.47028C30.5181 5.49349 30.5345 5.52017 30.5477 5.54311C30.5508 5.54978 30.5543 5.55299 30.5543 5.55645C30.5706 5.58606 30.5835 5.61621 30.5904 5.64902C30.6001 5.67863 30.6033 5.70877 30.6033 5.73838L53 28.3934Z" fill="url(#paint0_linear_401_1817)"/>
<defs>
<linearGradient id="paint0_linear_401_1817" x1="26.3353" y1="17.9948" x2="3.17891" y2="-7.14967" gradientUnits="userSpaceOnUse">
<stop stop-color="#C3C3C3" stop-opacity="0"/>
<stop offset="0.267" stop-color="#A4A4A4" stop-opacity="0.267"/>
<stop offset="0.542" stop-color="#8B8B8B" stop-opacity="0.542"/>
<stop offset="0.794" stop-color="#7C7C7C" stop-opacity="0.794"/>
<stop offset="1" stop-color="#777777"/>
</linearGradient>
</defs>
</svg>
