<svg width="116" height="117" viewBox="0 0 116 117" fill="none" xmlns="http://www.w3.org/2000/svg">
<path id="Vector" d="M111.601 60.2655L59.7896 4.14818C56.885 1.00202 52.5512 -0.388147 48.3588 0.466523L42.2099 1.72775L19.5525 6.36661L19.1123 6.45514C18.889 6.50039 18.6704 6.55155 18.4541 6.60951C18.3407 6.6399 18.2251 6.67444 18.109 6.70938C15.6996 7.4177 13.5998 8.84161 12.0614 10.7523C11.0659 11.9837 10.3018 13.4179 9.83986 14.9923L1.38695 43.8452C0.182204 47.9638 1.22063 52.416 4.13477 55.5709L55.926 111.667C58.5707 114.53 62.1298 116.039 65.735 116.166C68.6755 116.273 71.6493 115.458 74.1867 113.703C74.7272 113.33 75.249 112.914 75.7487 112.456L80.3703 108.188L110.808 80.086C116.501 74.8307 116.855 65.9556 111.601 60.2655ZM32.4706 36.9224C32.3533 37.1158 32.2371 37.3018 32.1127 37.4822C32.0605 37.5625 32.0017 37.6445 31.9443 37.7187C31.7569 37.9678 31.5558 38.2056 31.3464 38.4276C31.2754 38.5054 31.2066 38.5792 31.1326 38.6468C31.0616 38.7247 30.985 38.7969 30.9103 38.8609C28.3617 41.193 24.502 41.7229 21.3487 39.9025C17.4498 37.6487 16.117 32.6747 18.3685 28.7803C20.4169 25.2274 24.7335 23.8057 28.4374 25.2909C28.6848 25.3901 28.936 25.5032 29.1841 25.632C29.2843 25.6898 29.386 25.7399 29.4908 25.8004C33.3842 28.048 34.7169 33.0219 32.4706 36.9224Z" fill="#E8E8E8"/>
</svg>
