<svg width="116" height="111" viewBox="0 0 116 111" fill="none" xmlns="http://www.w3.org/2000/svg">
<path id="Vector" d="M55.9261 105.667C58.5708 108.53 62.1299 110.039 65.7351 110.166C68.6756 110.273 71.6493 109.458 74.1867 107.703C74.7272 107.33 75.2491 106.914 75.7488 106.456L80.3704 102.188L110.808 74.086C116.501 68.831 116.855 59.9558 111.601 54.2657L87.3969 28.0498L57.4054 10.7342C56.3055 9.95453 55.0713 9.34804 53.738 8.96145L47.7058 7.21513L25.0614 0.661499C23.2039 0.124129 21.285 0.0481601 19.4497 0.387022L19.1434 0.448747C19.0489 0.468571 18.9548 0.491868 18.8606 0.514071C18.7414 0.541077 18.621 0.567006 18.5038 0.597843C18.2929 0.654354 18.0844 0.71959 17.8762 0.787459C17.7918 0.814201 17.7084 0.843439 17.625 0.87184C15.8604 1.49012 14.2295 2.51149 12.882 3.90432L12.0575 4.75691C11.0639 5.98728 10.3011 7.41982 9.83963 8.99213L1.38671 37.845C0.181967 41.9636 1.22039 46.4158 4.13453 49.5707L55.9261 105.667ZM18.3682 22.7801C20.4167 19.2272 24.7332 17.8055 28.4372 19.2907C28.6846 19.3899 28.9357 19.5031 29.1839 19.6318C29.2841 19.6897 29.3858 19.7397 29.4905 19.8002C33.3843 22.0482 34.717 27.0217 32.4707 30.9224C32.3534 31.1158 32.2372 31.3018 32.1128 31.4822C32.0606 31.5625 32.0018 31.6445 31.9444 31.7187C31.757 31.9678 31.5559 32.2056 31.3464 32.4276C31.2755 32.5054 31.2067 32.5792 31.1327 32.6468C31.0617 32.7247 30.9851 32.7969 30.9104 32.8609C28.3618 35.193 24.502 35.7228 21.3488 33.9025C17.4498 31.6487 16.1171 26.6747 18.3682 22.7801Z" fill="url(#paint0_linear_401_1785)"/>
<defs>
<linearGradient id="paint0_linear_401_1785" x1="42.5023" y1="-5.83253" x2="102.935" y2="83.5352" gradientUnits="userSpaceOnUse">
<stop stop-color="white"/>
<stop offset="1" stop-color="white" stop-opacity="0"/>
</linearGradient>
</defs>
</svg>
