<svg width="76" height="119" viewBox="0 0 76 119" fill="none" xmlns="http://www.w3.org/2000/svg">
<path id="Vector" d="M70.048 17.519L64.6733 14.2709L44.4967 2.08009C40.6239 -0.258739 35.7741 -0.266974 31.8934 2.06017L6.10993 17.527C2.42943 19.7335 0.174805 23.7105 0.174805 28.0038V104.354C0.174805 112.1 6.45445 118.379 14.2038 118.379H61.922C69.6676 118.379 75.947 112.1 75.947 104.354V27.9756C75.9473 23.6943 73.7083 19.7335 70.048 17.519ZM32.3059 33.2262C29.1258 30.0422 29.1258 24.892 32.3059 21.7122C35.2054 18.8126 39.7428 18.5565 42.9349 20.9472C43.1511 21.1073 43.3633 21.2837 43.5676 21.4718C43.6515 21.5517 43.7357 21.628 43.8199 21.7122C46.9997 24.892 46.9997 30.0424 43.8199 33.2262C43.6597 33.3824 43.4993 33.5346 43.3314 33.6749C43.2594 33.7389 43.1832 33.8032 43.1072 33.8592C42.8629 34.0515 42.6068 34.2316 42.3462 34.3918C42.2583 34.4478 42.1699 34.5002 42.0819 34.548C41.994 34.604 41.9016 34.6521 41.8136 34.6962C38.7457 36.2899 34.8811 35.8014 32.3059 33.2262Z" fill="#FDC347"/>
</svg>
