<svg width="44" height="54" viewBox="0 0 44 54" fill="none" xmlns="http://www.w3.org/2000/svg">
<path id="Vector" d="M43.9469 27.9748V53.9376L12.4831 22.4738C12.2804 22.2105 12.06 21.9545 11.8217 21.7127C11.7364 21.6275 11.6509 21.5528 11.5691 21.4708C11.5122 21.4174 11.4551 21.3674 11.3948 21.3215C11.2456 21.1863 11.0888 21.062 10.9361 20.9483C7.89204 18.6687 3.62849 18.7933 0.726807 21.3255V1.60333C4.08006 -0.0682477 8.01662 -0.107029 11.3951 1.48938C11.7683 1.66363 12.1383 1.86258 12.4974 2.07986L32.6746 14.2699L38.0476 17.5201C41.7066 19.732 43.9469 23.6932 43.9469 27.9748Z" fill="url(#paint0_linear_401_1791)"/>
<defs>
<linearGradient id="paint0_linear_401_1791" x1="40.6256" y1="34.9127" x2="-13.7252" y2="4.65205" gradientUnits="userSpaceOnUse">
<stop stop-color="#FDC347"/>
<stop offset="1" stop-color="#F59500"/>
</linearGradient>
</defs>
</svg>
